<svg width="21" height="18" viewBox="0 0 21 18" fill="none" xmlns="http://www.w3.org/2000/svg">
<path d="M0.0820326 5.99401C0.0815054 5.20621 0.236384 4.42605 0.537799 3.69819C0.839215 2.97034 1.28125 2.30909 1.83858 1.75231C2.39592 1.19553 3.05761 0.754165 3.78576 0.453478C4.51392 0.152791 5.29424 -0.00130701 6.08203 8.35025e-06H14.082C17.395 8.35025e-06 20.082 2.69501 20.082 5.99401V18H6.08203C2.76903 18 0.0820326 15.305 0.0820326 12.006V5.99401ZM18.082 16V5.99401C18.0794 4.93451 17.6569 3.91925 16.9072 3.17063C16.1574 2.42201 15.1415 2.00106 14.082 2.00001H6.08203C5.55688 1.99869 5.03663 2.10106 4.55113 2.30123C4.06562 2.50141 3.62441 2.79546 3.25279 3.16652C2.88117 3.53758 2.58646 3.97835 2.38556 4.46356C2.18465 4.94876 2.0815 5.46886 2.08203 5.99401V12.006C2.08468 13.0655 2.50715 14.0808 3.25689 14.8294C4.00663 15.578 5.02253 15.999 6.08203 16H18.082ZM12.082 8.00001H14.082V10H12.082V8.00001ZM6.08203 8.00001H8.08203V10H6.08203V8.00001Z" fill="#7D7D7D"/>
</svg>
